<svg viewBox="80 60 352 392" xmlns="http://www.w3.org/2000/svg" fill="none">
  <defs>
    <filter id="glow" x="-30%" y="-30%" width="160%" height="160%">
      <feGaussianBlur stdDeviation="5" result="blur"/>
      <feMerge>
        <feMergeNode in="blur"/>
        <feMergeNode in="SourceGraphic"/>
      </feMerge>
    </filter>
    <linearGradient id="g" x1="0%" y1="0%" x2="100%" y2="100%">
      <stop offset="0%" stop-color="#60cfff"/>
      <stop offset="50%" stop-color="#4facfe"/>
      <stop offset="100%" stop-color="#b084fc"/>
    </linearGradient>
  </defs>

  <g filter="url(#glow)">
    <!-- Brain silhouette outline -->
    <path d="
      M255 85
      C230 83, 200 90, 175 105
      C148 122, 128 148, 115 178
      C102 208, 98 240, 102 268
      C106 296, 118 320, 132 340
      C146 360, 165 375, 188 382
      C205 388, 222 386, 238 378
      C248 372, 254 365, 258 358
      C262 365, 268 372, 278 378
      C294 386, 311 388, 328 382
      C351 375, 370 360, 384 340
      C398 320, 410 296, 414 268
      C418 240, 414 208, 401 178
      C388 148, 368 122, 341 105
      C316 90, 286 83, 258 85
      Z"
      stroke="url(#g)" stroke-width="2.5" fill="none" opacity="0.6"/>

    <!-- Brain stem -->
    <path d="M238 378 C235 395, 240 415, 256 430 C272 415, 277 395, 274 378"
      stroke="url(#g)" stroke-width="2" fill="none" opacity="0.5"/>

    <!-- Central fissure -->
    <path d="M256 88 C256 120, 257 200, 256 300"
      stroke="url(#g)" stroke-width="1.2" fill="none" opacity="0.25"/>

    <!-- Neural connection lines -->
    <g stroke="url(#g)" stroke-width="1.5" opacity="0.55">
      <!-- Top cluster -->
      <line x1="256" y1="100" x2="210" y2="120"/>
      <line x1="256" y1="100" x2="305" y2="118"/>
      <line x1="210" y1="120" x2="170" y2="155"/>
      <line x1="305" y1="118" x2="345" y2="150"/>
      <line x1="210" y1="120" x2="256" y2="155"/>
      <line x1="305" y1="118" x2="256" y2="155"/>
      <line x1="210" y1="120" x2="305" y2="118"/>

      <!-- Upper-mid left -->
      <line x1="170" y1="155" x2="135" y2="200"/>
      <line x1="170" y1="155" x2="200" y2="200"/>
      <line x1="170" y1="155" x2="256" y2="155"/>
      <line x1="135" y1="200" x2="200" y2="200"/>
      <line x1="200" y1="200" x2="256" y2="155"/>

      <!-- Upper-mid right -->
      <line x1="345" y1="150" x2="380" y2="195"/>
      <line x1="345" y1="150" x2="315" y2="198"/>
      <line x1="345" y1="150" x2="256" y2="155"/>
      <line x1="380" y1="195" x2="315" y2="198"/>
      <line x1="315" y1="198" x2="256" y2="155"/>

      <!-- Center hub -->
      <line x1="256" y1="155" x2="200" y2="200"/>
      <line x1="256" y1="155" x2="315" y2="198"/>
      <line x1="256" y1="155" x2="256" y2="245"/>
      <line x1="200" y1="200" x2="256" y2="245"/>
      <line x1="315" y1="198" x2="256" y2="245"/>

      <!-- Mid left -->
      <line x1="135" y1="200" x2="115" y2="255"/>
      <line x1="135" y1="200" x2="175" y2="265"/>
      <line x1="115" y1="255" x2="175" y2="265"/>
      <line x1="200" y1="200" x2="175" y2="265"/>
      <line x1="175" y1="265" x2="256" y2="245"/>

      <!-- Mid right -->
      <line x1="380" y1="195" x2="400" y2="250"/>
      <line x1="380" y1="195" x2="340" y2="260"/>
      <line x1="400" y1="250" x2="340" y2="260"/>
      <line x1="315" y1="198" x2="340" y2="260"/>
      <line x1="340" y1="260" x2="256" y2="245"/>

      <!-- Lower left -->
      <line x1="115" y1="255" x2="130" y2="315"/>
      <line x1="175" y1="265" x2="130" y2="315"/>
      <line x1="175" y1="265" x2="195" y2="330"/>
      <line x1="130" y1="315" x2="195" y2="330"/>
      <line x1="256" y1="245" x2="195" y2="330"/>

      <!-- Lower right -->
      <line x1="400" y1="250" x2="385" y2="310"/>
      <line x1="340" y1="260" x2="385" y2="310"/>
      <line x1="340" y1="260" x2="320" y2="328"/>
      <line x1="385" y1="310" x2="320" y2="328"/>
      <line x1="256" y1="245" x2="320" y2="328"/>

      <!-- Bottom -->
      <line x1="195" y1="330" x2="256" y2="355"/>
      <line x1="320" y1="328" x2="256" y2="355"/>
      <line x1="256" y1="245" x2="256" y2="355"/>
      <line x1="130" y1="315" x2="160" y2="365"/>
      <line x1="195" y1="330" x2="160" y2="365"/>
      <line x1="385" y1="310" x2="355" y2="362"/>
      <line x1="320" y1="328" x2="355" y2="362"/>
      <line x1="160" y1="365" x2="256" y2="355"/>
      <line x1="355" y1="362" x2="256" y2="355"/>

      <!-- Stem connections -->
      <line x1="256" y1="355" x2="256" y2="420"/>
    </g>

    <!-- Neural nodes (dots) -->
    <g fill="url(#g)">
      <!-- Top -->
      <circle cx="256" cy="100" r="6"/>
      <circle cx="210" cy="120" r="5"/>
      <circle cx="305" cy="118" r="5"/>

      <!-- Upper mid -->
      <circle cx="170" cy="155" r="5"/>
      <circle cx="256" cy="155" r="7"/>
      <circle cx="345" cy="150" r="5"/>

      <!-- Mid row -->
      <circle cx="135" cy="200" r="4.5"/>
      <circle cx="200" cy="200" r="4.5"/>
      <circle cx="315" cy="198" r="4.5"/>
      <circle cx="380" cy="195" r="4.5"/>

      <!-- Center -->
      <circle cx="256" cy="245" r="7"/>

      <!-- Mid-lower -->
      <circle cx="115" cy="255" r="4"/>
      <circle cx="175" cy="265" r="4.5"/>
      <circle cx="340" cy="260" r="4.5"/>
      <circle cx="400" cy="250" r="4"/>

      <!-- Lower -->
      <circle cx="130" cy="315" r="4"/>
      <circle cx="195" cy="330" r="4.5"/>
      <circle cx="320" cy="328" r="4.5"/>
      <circle cx="385" cy="310" r="4"/>

      <!-- Bottom -->
      <circle cx="160" cy="365" r="4"/>
      <circle cx="256" cy="355" r="6"/>
      <circle cx="355" cy="362" r="4"/>

      <!-- Stem -->
      <circle cx="256" cy="420" r="4.5"/>
    </g>
  </g>
</svg>